<svg width="24" height="24" viewBox="0 0 24 24" fill="none" xmlns="http://www.w3.org/2000/svg">
<path d="M17 20.0022L18.0014 20.0016C19.1054 20.0008 20 19.1056 20 18.0016V6.00378C20 4.89939 19.1049 4.00404 18.0005 4.00378L12.0295 4.00238L6.00391 4.00096C4.89949 4.0007 4.00392 4.89568 4.00344 6.0001L4 14.0002M17 20.0022H6.00287C4.89886 20.0022 4.00366 19.1077 4.00287 18.0037L4 14.0002M17 20.0022L9.41021 11.5674C8.6437 10.7156 7.31958 10.6807 6.50928 11.491L4 14.0002M17 10.0002C17 11.1048 16.1046 12.0002 15 12.0002C13.8954 12.0002 13 11.1048 13 10.0002C13 8.89565 13.8954 8.00022 15 8.00022C16.1046 8.00022 17 8.89565 17 10.0002Z" stroke="white" stroke-linecap="round" stroke-linejoin="round"/>
</svg>
