<svg width="24" height="24" viewBox="0 0 24 24" fill="none" xmlns="http://www.w3.org/2000/svg">
<path d="M21 12C21 16.9706 16.9706 21 12 21M21 12C21 11.3981 20.9409 10.8099 20.8282 10.2411M21 12C21 14.4153 20.0486 16.6084 18.5 18.225M12 21C10.1499 21 8.4301 20.4417 7 19.4845M12 21C14.5552 21 16.8618 19.9351 18.5 18.225M17.5 4.87555C15.9791 3.69967 14.0712 3 12 3C9.69494 3 7.59227 3.86656 6 5.29168M17.5 4.87555L16.4077 5.21659C15.8334 5.39591 15.3703 5.82427 15.1468 6.38292L14.7023 7.49436C14.574 7.81505 14.311 8.06299 13.9834 8.17221V8.17221C13.4216 8.35947 13.0872 8.93575 13.2033 9.51642L13.2913 9.95638C13.4126 10.5632 13.9455 11 14.5643 11V11C15.1231 11 15.6192 10.6424 15.7959 10.1123L15.8175 10.0474C15.9344 9.69692 16.1857 9.40717 16.5161 9.24194L16.8292 9.08541C16.9415 9.02924 17.0654 9 17.191 9V9C17.6378 9 18 9.36221 18 9.80902V9.85457C18 10.1002 17.8943 10.334 17.7098 10.4963L16.1946 11.8289C16.0654 11.9425 15.9221 12.039 15.7682 12.1159L14.7282 12.6359C14.266 12.867 13.9279 13.2885 13.8025 13.7898V13.7898C13.6211 14.5156 13.9155 15.277 14.5379 15.6919L15 16L15.4437 16.2219C15.7999 16.4 16.0707 16.7122 16.1967 17.09V17.09C16.3816 17.6449 16.872 18.0418 17.4532 18.1072L18.5 18.225M17.5 4.87555C19.187 6.17981 20.3981 8.06996 20.8282 10.2411M20.8282 10.2411L20.4086 10.4152C19.6472 10.7313 19.3134 11.6267 19.6821 12.3642L19.7126 12.4252C19.8935 12.7871 19.8935 13.2129 19.7126 13.5748V13.5748C19.5754 13.8492 19.5409 14.1636 19.6153 14.4612L19.7839 15.1357C19.9215 15.6858 19.819 16.2685 19.502 16.7387L18.5 18.225M6 5.29168L7.96903 6.08475C8.59197 6.33566 9 6.93988 9 7.61146V7.61146C9 7.86697 8.94051 8.11898 8.82624 8.34752L8.5 9L7.89229 9.91156C7.65522 10.2672 7.22599 10.4433 6.80747 10.3566V10.3566C6.45946 10.2846 6.09864 10.3937 5.84894 10.6466L5.5 11L5.30902 11.191C4.86221 11.6378 4.86221 12.3622 5.30902 12.809V12.809C5.43461 12.9346 5.58773 13.0292 5.75623 13.0854L6.55209 13.3507C6.84665 13.4489 7.1143 13.6143 7.33385 13.8339L7.73603 14.236C7.90963 14.4096 8.04042 14.6213 8.11805 14.8542L8.16479 14.9944C8.3627 15.5881 8.13874 16.2408 7.618 16.588V16.588C7.23191 16.8454 7 17.2787 7 17.7427V18V19.4845M6 5.29168C4.39224 6.73067 3.30485 8.73913 3.05493 11M7 19.4845C5.11936 18.2256 3.73963 16.2767 3.22302 14M3.05493 11C3.01863 11.3283 3 11.662 3 12C3 12.6874 3.07706 13.3568 3.22302 14M3.05493 11L3.26775 11.4782C3.41955 11.8192 3.47286 12.196 3.42164 12.5658L3.22302 14" stroke="white" stroke-linecap="round" stroke-linejoin="round"/>
</svg>
